<svg width="84" height="38" viewBox="0 0 84 38" fill="none" xmlns="http://www.w3.org/2000/svg">
<path d="M11.2266 37H4.42969V9.39062C4.42969 7.46875 4.80469 5.85156 5.55469 4.53906C6.32031 3.21094 7.39062 2.21094 8.76562 1.53906C10.1562 0.851563 11.8047 0.507812 13.7109 0.507812C14.3359 0.507812 14.9375 0.554688 15.5156 0.648438C16.0938 0.726562 16.6562 0.828125 17.2031 0.953125L17.1328 6.03906C16.8359 5.96094 16.5234 5.90625 16.1953 5.875C15.8672 5.84375 15.4844 5.82812 15.0469 5.82812C14.2344 5.82812 13.5391 5.96875 12.9609 6.25C12.3984 6.51562 11.9688 6.91406 11.6719 7.44531C11.375 7.97656 11.2266 8.625 11.2266 9.39062V37ZM16.2891 11.6406V16.4219H0.65625V11.6406H16.2891ZM19.8281 1H26.5781V31.1875L25.8984 37H19.8281V1ZM42.6328 24.0625V24.5547C42.6328 26.4453 42.4297 28.1797 42.0234 29.7578C41.6328 31.3359 41.0234 32.7031 40.1953 33.8594C39.3672 35 38.3359 35.8906 37.1016 36.5312C35.8828 37.1562 34.4453 37.4688 32.7891 37.4688C31.2422 37.4688 29.8984 37.1562 28.7578 36.5312C27.6328 35.9062 26.6875 35.0234 25.9219 33.8828C25.1562 32.7422 24.5391 31.4062 24.0703 29.875C23.6016 28.3438 23.25 26.6719 23.0156 24.8594V23.7812C23.25 21.9688 23.6016 20.2969 24.0703 18.7656C24.5391 17.2344 25.1562 15.8984 25.9219 14.7578C26.6875 13.6172 27.6328 12.7344 28.7578 12.1094C29.8828 11.4844 31.2109 11.1719 32.7422 11.1719C34.4141 11.1719 35.8672 11.4922 37.1016 12.1328C38.3516 12.7578 39.3828 13.6484 40.1953 14.8047C41.0234 15.9453 41.6328 17.3047 42.0234 18.8828C42.4297 20.4453 42.6328 22.1719 42.6328 24.0625ZM35.8828 24.5547V24.0625C35.8828 23.0312 35.8047 22.0625 35.6484 21.1562C35.5078 20.2344 35.2578 19.4297 34.8984 18.7422C34.5391 18.0391 34.0469 17.4844 33.4219 17.0781C32.8125 16.6719 32.0234 16.4688 31.0547 16.4688C30.1328 16.4688 29.3516 16.625 28.7109 16.9375C28.0703 17.25 27.5391 17.6875 27.1172 18.25C26.7109 18.8125 26.4062 19.4844 26.2031 20.2656C26 21.0312 25.875 21.875 25.8281 22.7969V25.8672C25.875 27.1016 26.0781 28.1953 26.4375 29.1484C26.8125 30.0859 27.375 30.8281 28.125 31.375C28.8906 31.9062 29.8828 32.1719 31.1016 32.1719C32.0547 32.1719 32.8438 31.9844 33.4688 31.6094C34.0938 31.2344 34.5781 30.7031 34.9219 30.0156C35.2812 29.3281 35.5312 28.5234 35.6719 27.6016C35.8125 26.6641 35.8828 25.6484 35.8828 24.5547ZM53.5781 16.8906V37H46.8047V11.6406H53.1562L53.5781 16.8906ZM52.6406 23.4297H50.7656C50.7656 21.6641 50.9766 20.0391 51.3984 18.5547C51.8359 17.0547 52.4688 15.7578 53.2969 14.6641C54.1406 13.5547 55.1797 12.6953 56.4141 12.0859C57.6484 11.4766 59.0781 11.1719 60.7031 11.1719C61.8281 11.1719 62.8594 11.3438 63.7969 11.6875C64.7344 12.0156 65.5391 12.5391 66.2109 13.2578C66.8984 13.9609 67.4297 14.8828 67.8047 16.0234C68.1797 17.1484 68.3672 18.5 68.3672 20.0781V37H61.6172V20.8281C61.6172 19.6719 61.4609 18.7812 61.1484 18.1562C60.8359 17.5312 60.3906 17.0938 59.8125 16.8438C59.25 16.5938 58.5703 16.4688 57.7734 16.4688C56.8984 16.4688 56.1328 16.6484 55.4766 17.0078C54.8359 17.3672 54.3047 17.8672 53.8828 18.5078C53.4609 19.1328 53.1484 19.8672 52.9453 20.7109C52.7422 21.5547 52.6406 22.4609 52.6406 23.4297ZM67.7344 22.6562L65.3203 22.9609C65.3203 21.3047 65.5234 19.7656 65.9297 18.3438C66.3516 16.9219 66.9688 15.6719 67.7812 14.5938C68.6094 13.5156 69.6328 12.6797 70.8516 12.0859C72.0703 11.4766 73.4766 11.1719 75.0703 11.1719C76.2891 11.1719 77.3984 11.3516 78.3984 11.7109C79.3984 12.0547 80.25 12.6094 80.9531 13.375C81.6719 14.125 82.2188 15.1094 82.5938 16.3281C82.9844 17.5469 83.1797 19.0391 83.1797 20.8047V37H76.4062V20.8047C76.4062 19.6328 76.25 18.7422 75.9375 18.1328C75.6406 17.5078 75.2031 17.0781 74.625 16.8438C74.0625 16.5938 73.3906 16.4688 72.6094 16.4688C71.7969 16.4688 71.0859 16.6328 70.4766 16.9609C69.8672 17.2734 69.3594 17.7109 68.9531 18.2734C68.5469 18.8359 68.2422 19.4922 68.0391 20.2422C67.8359 20.9766 67.7344 21.7812 67.7344 22.6562Z" fill="black"/>
</svg>
